<svg id="Layer_1" enable-background="new 0 0 152 152" height="512" viewBox="0 0 152 152" width="512" xmlns="http://www.w3.org/2000/svg"><path id="Icon" d="m50.5 64.2h-14.5c0-.7 0-11.7 0-16.9-.2-1 .5-1.8 1.3-2 16.7-4.9 24.9-29.8 24.9-32.8 0-1.1.7-1.6 1.8-1.6h15.5c1.3 0 1.5.5 1.5 1.6v31.3h30.8v20.4h-30.6c0 .3-.3 44 0 45.9.5 3.1 2.4 5.7 5.2 7.2 4.9 2.9 10.1 3.1 15.5 2.1 4.6-.8 13.5-5.4 14-5.7v18.9c.2 1-.5 1.8-1.3 2-10.1 4.9-21.2 7-32.4 6.2-9.6-.7-18.4-3.4-25.6-10.6-3.6-3.7-6.4-7.8-6.4-13.4z"/></svg>